<svg id="visual" viewBox="0 0 900 600" width="900" height="600" xmlns="http://www.w3.org/2000/svg" xmlns:xlink="http://www.w3.org/1999/xlink" version="1.1"><rect x="0" y="0" width="900" height="600" fill="#67E8F9"></rect><path d="M491 600L442 600L442 514L520 514L520 429L423 429L423 343L485 343L485 257L463 257L463 171L416 171L416 86L446 86L446 0L900 0L900 86L900 86L900 171L900 171L900 257L900 257L900 343L900 343L900 429L900 429L900 514L900 514L900 600L900 600Z" fill="#13213c"></path><path d="M564 600L673 600L673 514L679 514L679 429L524 429L524 343L657 343L657 257L656 257L656 171L530 171L530 86L661 86L661 0L900 0L900 86L900 86L900 171L900 171L900 257L900 257L900 343L900 343L900 429L900 429L900 514L900 514L900 600L900 600Z" fill="#121c31"></path><path d="M794 600L751 600L751 514L701 514L701 429L684 429L684 343L778 343L778 257L810 257L810 171L689 171L689 86L821 86L821 0L900 0L900 86L900 86L900 171L900 171L900 257L900 257L900 343L900 343L900 429L900 429L900 514L900 514L900 600L900 600Z" fill="#111827"></path></svg>